<?xml version="1.0" encoding="UTF-8"?>
<!DOCTYPE svg PUBLIC "-//W3C//DTD SVG 1.1//EN" "http://www.w3.org/Graphics/SVG/1.1/DTD/svg11.dtd">
<svg xmlns="http://www.w3.org/2000/svg" version="1.1" width="512px" height="512px" style="shape-rendering:geometricPrecision; text-rendering:geometricPrecision; image-rendering:optimizeQuality; fill-rule:evenodd; clip-rule:evenodd" xmlns:xlink="http://www.w3.org/1999/xlink">
<g><path style="opacity:1" fill="green" d="M 235.5,-0.5 C 248.833,-0.5 262.167,-0.5 275.5,-0.5C 289.8,4.05634 298.634,13.723 302,28.5C 302.5,88.4991 302.667,148.499 302.5,208.5C 362.501,208.333 422.501,208.5 482.5,209C 497.277,212.366 506.944,221.2 511.5,235.5C 511.5,248.833 511.5,262.167 511.5,275.5C 506.804,289.693 497.138,298.526 482.5,302C 422.501,302.5 362.501,302.667 302.5,302.5C 302.667,362.501 302.5,422.501 302,482.5C 298.526,497.138 289.693,506.804 275.5,511.5C 262.167,511.5 248.833,511.5 235.5,511.5C 221.307,506.804 212.474,497.138 209,482.5C 208.5,422.501 208.333,362.501 208.5,302.5C 148.499,302.667 88.4991,302.5 28.5,302C 13.8623,298.526 4.19567,289.693 -0.5,275.5C -0.5,262.167 -0.5,248.833 -0.5,235.5C 4.05634,221.2 13.723,212.366 28.5,209C 88.4991,208.5 148.499,208.333 208.5,208.5C 208.333,148.499 208.5,88.4991 209,28.5C 212.474,13.8623 221.307,4.19567 235.5,-0.5 Z"/></g>
</svg>
